# xmcd
#
# Track frame offsets:
#	183
#	13520
#	26933
#	40820
#	58558
#	73308
#	90808
#	107008
#	118258
#	129958
#	142720
#	158095
#	170458
#	183883
#	197933
#
# Disc length: 2831 seconds
#
# Revision: 1
# Processed by: cddbd v1.5.2PL0 Copyright (c) Steve Scherf et al.
# Submitted via: audiograbber 1.83.01
#
DISCID=c30b0d0f
DTITLE=aa.vv. - 38 - Ho il cuore in paradiso
DYEAR=1994
DGENRE=Oldies
TTITLE0=G. Kramer - Ho il cuore in paradiso
TTITLE1=M. Barreto - Felicità
TTITLE2=T. de Mola - Vent'anni in cuor
TTITLE3=B. Curtis - Nessuno
TTITLE4=G. Vanorio - Torna Maggio
TTITLE5=J. Sentieri - Uno dei tanti
TTITLE6=R. Rascel - Vogliamoci tanto bene
TTITLE7=F. Buscaglione - F. Robins - Come prima
TTITLE8=G. Kramer - Tu sorridi e passa un angelo
TTITLE9=T. Schipa - Chi è più felice di me
TTITLE10=N. Otto - Te voglio
TTITLE11=E. Pericoli - E' tutta colpa della primavera
TTITLE12=E. Bonino - Se fossi milionario
TTITLE13=G. Lugo - La mia canzone al vento
TTITLE14=R. Rascel - Merci beaucoup
EXTD=
EXTT0=
EXTT1=
EXTT2=
EXTT3=
EXTT4=
EXTT5=
EXTT6=
EXTT7=
EXTT8=
EXTT9=
EXTT10=
EXTT11=
EXTT12=
EXTT13=
EXTT14=
PLAYORDER=
